<mxfile host="app.diagrams.net" agent="Mozilla/5.0 (Windows NT 10.0; Win64; x64) AppleWebKit/537.36 (KHTML, like Gecko) Chrome/135.0.0.0 Safari/537.36" version="27.0.9">
  <diagram name="Page-1" id="b5b7bab2-c9e2-2cf4-8b2a-24fd1a2a6d21">
    <mxGraphModel dx="741" dy="433" grid="1" gridSize="10" guides="1" tooltips="1" connect="1" arrows="1" fold="1" page="1" pageScale="1" pageWidth="827" pageHeight="1169" background="none" math="0" shadow="0">
      <root>
        <mxCell id="0" />
        <mxCell id="1" parent="0" />
        <mxCell id="t2FfP7UykLoLVhH9HQsE-2" value="Circle" style="swimlane;fontStyle=1;align=center;verticalAlign=middle;childLayout=stackLayout;horizontal=1;startSize=29;horizontalStack=0;resizeParent=1;resizeParentMax=0;resizeLast=0;collapsible=0;marginBottom=0;html=1;whiteSpace=wrap;" parent="1" vertex="1">
          <mxGeometry x="110" y="40" width="210" height="80" as="geometry" />
        </mxCell>
        <mxCell id="t2FfP7UykLoLVhH9HQsE-3" value="-radius: double" style="text;html=1;strokeColor=none;fillColor=none;align=left;verticalAlign=middle;spacingLeft=4;spacingRight=4;overflow=hidden;rotatable=0;points=[[0,0.5],[1,0.5]];portConstraint=eastwest;whiteSpace=wrap;" parent="t2FfP7UykLoLVhH9HQsE-2" vertex="1">
          <mxGeometry y="29" width="210" height="25" as="geometry" />
        </mxCell>
        <mxCell id="t2FfP7UykLoLVhH9HQsE-4" value="-color: String" style="text;html=1;strokeColor=none;fillColor=none;align=left;verticalAlign=middle;spacingLeft=4;spacingRight=4;overflow=hidden;rotatable=0;points=[[0,0.5],[1,0.5]];portConstraint=eastwest;whiteSpace=wrap;" parent="t2FfP7UykLoLVhH9HQsE-2" vertex="1">
          <mxGeometry y="54" width="210" height="26" as="geometry" />
        </mxCell>
        <mxCell id="t2FfP7UykLoLVhH9HQsE-5" value="&lt;div style=&quot;text-align: left;&quot;&gt;&lt;span style=&quot;background-color: transparent; color: light-dark(rgb(0, 0, 0), rgb(255, 255, 255));&quot;&gt;+Circle()&lt;/span&gt;&lt;/div&gt;&lt;div style=&quot;text-align: left;&quot;&gt;+ Circle(radius:double, color:String)&lt;/div&gt;&lt;div style=&quot;text-align: left;&quot;&gt;&amp;nbsp;+ getRadius(): double&lt;/div&gt;&lt;div style=&quot;text-align: left;&quot;&gt;+ setRadius(radius: double): void&lt;/div&gt;&lt;div style=&quot;text-align: left;&quot;&gt;+ getColor(): String&lt;/div&gt;&lt;div style=&quot;text-align: left;&quot;&gt;+ setColor(color: String): void&lt;/div&gt;&lt;div style=&quot;text-align: left;&quot;&gt;+ getArea(): double&lt;/div&gt;&lt;div style=&quot;text-align: left;&quot;&gt;&lt;span style=&quot;background-color: transparent;&quot;&gt;+ toString(): String&lt;/span&gt;&lt;br&gt;&lt;/div&gt;" style="html=1;whiteSpace=wrap;" parent="1" vertex="1">
          <mxGeometry x="110" y="120" width="210" height="140" as="geometry" />
        </mxCell>
        <mxCell id="97CAbLx4iERuWS0nC9yN-3" value="" style="endArrow=classic;html=1;rounded=0;" edge="1" parent="1">
          <mxGeometry relative="1" as="geometry">
            <mxPoint x="440" y="60" as="sourcePoint" />
            <mxPoint x="320" y="60" as="targetPoint" />
          </mxGeometry>
        </mxCell>
        <mxCell id="97CAbLx4iERuWS0nC9yN-4" value="Label" style="edgeLabel;resizable=0;html=1;;align=center;verticalAlign=middle;" connectable="0" vertex="1" parent="97CAbLx4iERuWS0nC9yN-3">
          <mxGeometry relative="1" as="geometry" />
        </mxCell>
        <mxCell id="97CAbLx4iERuWS0nC9yN-5" value="Cylinder" style="swimlane;fontStyle=1;align=center;verticalAlign=middle;childLayout=stackLayout;horizontal=1;startSize=29;horizontalStack=0;resizeParent=1;resizeParentMax=0;resizeLast=0;collapsible=0;marginBottom=0;html=1;whiteSpace=wrap;" vertex="1" parent="1">
          <mxGeometry x="440" y="40" width="210" height="54" as="geometry" />
        </mxCell>
        <mxCell id="97CAbLx4iERuWS0nC9yN-6" value="-height: double" style="text;html=1;strokeColor=none;fillColor=none;align=left;verticalAlign=middle;spacingLeft=4;spacingRight=4;overflow=hidden;rotatable=0;points=[[0,0.5],[1,0.5]];portConstraint=eastwest;whiteSpace=wrap;" vertex="1" parent="97CAbLx4iERuWS0nC9yN-5">
          <mxGeometry y="29" width="210" height="25" as="geometry" />
        </mxCell>
        <mxCell id="97CAbLx4iERuWS0nC9yN-8" value="&lt;div style=&quot;text-align: left;&quot;&gt;+ Cylinder()&amp;nbsp;&lt;/div&gt;&lt;div style=&quot;text-align: left;&quot;&gt;+ Cylinder(radius:double, color:String, height:double)&lt;/div&gt;&lt;div style=&quot;text-align: left;&quot;&gt;+ setHeight(height: double): void&lt;/div&gt;&lt;div style=&quot;text-align: left;&quot;&gt;+ getVolume(): double&lt;/div&gt;&lt;div style=&quot;text-align: left;&quot;&gt;+ toString(): String&lt;/div&gt;" style="html=1;whiteSpace=wrap;" vertex="1" parent="1">
          <mxGeometry x="440" y="94" width="210" height="140" as="geometry" />
        </mxCell>
      </root>
    </mxGraphModel>
  </diagram>
</mxfile>
